<mxfile host="65bd71144e">
    <diagram id="GesygHaYG1iDrSGI4aX_" name="Contexto">
        <mxGraphModel dx="990" dy="567" grid="1" gridSize="10" guides="1" tooltips="1" connect="1" arrows="1" fold="1" page="1" pageScale="1" pageWidth="1169" pageHeight="1654" math="0" shadow="0">
            <root>
                <mxCell id="0"/>
                <mxCell id="1" parent="0"/>
                <object placeholders="1" c4Name="Usuario" c4Type="Person" c4Description="yo" label="&lt;font style=&quot;font-size: 16px&quot;&gt;&lt;b&gt;%c4Name%&lt;/b&gt;&lt;/font&gt;&lt;div&gt;[%c4Type%]&lt;/div&gt;&lt;br&gt;&lt;div&gt;&lt;font style=&quot;font-size: 11px&quot;&gt;&lt;font color=&quot;#cccccc&quot;&gt;%c4Description%&lt;/font&gt;&lt;/div&gt;" id="2">
                    <mxCell style="html=1;fontSize=11;dashed=0;whitespace=wrap;fillColor=#083F75;strokeColor=#06315C;fontColor=#ffffff;shape=mxgraph.c4.person2;align=center;metaEdit=1;points=[[0.5,0,0],[1,0.5,0],[1,0.75,0],[0.75,1,0],[0.5,1,0],[0.25,1,0],[0,0.75,0],[0,0.5,0]];resizable=0;" vertex="1" parent="1">
                        <mxGeometry x="70" y="160" width="200" height="180" as="geometry"/>
                    </mxCell>
                </object>
                <object placeholders="1" c4Name="Aplicacion TODO" c4Type="Software System" c4Description="" label="&lt;font style=&quot;font-size: 16px&quot;&gt;&lt;b&gt;%c4Name%&lt;/b&gt;&lt;/font&gt;&lt;div&gt;[%c4Type%]&lt;/div&gt;&lt;br&gt;&lt;div&gt;&lt;font style=&quot;font-size: 11px&quot;&gt;&lt;font color=&quot;#cccccc&quot;&gt;%c4Description%&lt;/font&gt;&lt;/div&gt;" id="3">
                    <mxCell style="rounded=1;whiteSpace=wrap;html=1;labelBackgroundColor=none;fillColor=#1061B0;fontColor=#ffffff;align=center;arcSize=10;strokeColor=#0D5091;metaEdit=1;resizable=0;points=[[0.25,0,0],[0.5,0,0],[0.75,0,0],[1,0.25,0],[1,0.5,0],[1,0.75,0],[0.75,1,0],[0.5,1,0],[0.25,1,0],[0,0.75,0],[0,0.5,0],[0,0.25,0]];" vertex="1" parent="1">
                        <mxGeometry x="560" y="190" width="240" height="120" as="geometry"/>
                    </mxCell>
                </object>
                <object placeholders="1" c4Type="Relationship" c4Technology="" c4Description="USAR" label="&lt;div style=&quot;text-align: left&quot;&gt;&lt;div style=&quot;text-align: center&quot;&gt;&lt;b&gt;%c4Description%&lt;/b&gt;&lt;/div&gt;&lt;div style=&quot;text-align: center&quot;&gt;[%c4Technology%]&lt;/div&gt;&lt;/div&gt;" id="4">
                    <mxCell style="endArrow=blockThin;html=1;fontSize=10;fontColor=#FFFFFF;strokeWidth=1;endFill=1;strokeColor=#828282;elbow=vertical;metaEdit=1;endSize=14;startSize=14;jumpStyle=arc;jumpSize=16;rounded=0;edgeStyle=orthogonalEdgeStyle;exitX=1;exitY=0.75;exitDx=0;exitDy=0;exitPerimeter=0;entryX=0;entryY=0.5;entryDx=0;entryDy=0;entryPerimeter=0;" edge="1" parent="1" source="2" target="3">
                        <mxGeometry x="-0.1667" y="10" width="240" relative="1" as="geometry">
                            <mxPoint x="310" y="260" as="sourcePoint"/>
                            <mxPoint x="550" y="260" as="targetPoint"/>
                            <mxPoint as="offset"/>
                        </mxGeometry>
                    </mxCell>
                </object>
            </root>
        </mxGraphModel>
    </diagram>
    <diagram id="3q-0yj7O8tGeYwjoJPVP" name="Contenedores">
        <mxGraphModel dx="1165" dy="667" grid="1" gridSize="10" guides="1" tooltips="1" connect="1" arrows="1" fold="1" page="1" pageScale="1" pageWidth="1169" pageHeight="1654" math="0" shadow="0">
            <root>
                <mxCell id="LpzHvoaJvCNoSVXPoMO7-0"/>
                <mxCell id="LpzHvoaJvCNoSVXPoMO7-1" parent="LpzHvoaJvCNoSVXPoMO7-0"/>
                <object placeholders="1" c4Name="App Todo" c4Type="SystemScopeBoundary" c4Application="Software System" label="&lt;font style=&quot;font-size: 16px&quot;&gt;&lt;b&gt;&lt;div style=&quot;text-align: left&quot;&gt;%c4Name%&lt;/div&gt;&lt;/b&gt;&lt;/font&gt;&lt;div style=&quot;text-align: left&quot;&gt;[%c4Application%]&lt;/div&gt;" id="LpzHvoaJvCNoSVXPoMO7-2">
                    <mxCell style="rounded=1;fontSize=11;whiteSpace=wrap;html=1;dashed=1;arcSize=20;fillColor=none;strokeColor=#666666;fontColor=#66B2FF;labelBackgroundColor=none;align=left;verticalAlign=bottom;labelBorderColor=none;spacingTop=0;spacing=10;dashPattern=8 4;metaEdit=1;rotatable=0;perimeter=rectanglePerimeter;labelPadding=0;allowArrows=0;connectable=0;expand=0;recursiveResize=0;editable=1;pointerEvents=0;absoluteArcSize=1;points=[[0.25,0,0],[0.5,0,0],[0.75,0,0],[1,0.25,0],[1,0.5,0],[1,0.75,0],[0.75,1,0],[0.5,1,0],[0.25,1,0],[0,0.75,0],[0,0.5,0],[0,0.25,0]];" vertex="1" parent="LpzHvoaJvCNoSVXPoMO7-1">
                        <mxGeometry x="280" y="20" width="740" height="570" as="geometry"/>
                    </mxCell>
                </object>
                <object placeholders="1" c4Name="Usuario" c4Type="Person" c4Description="yo" label="&lt;font style=&quot;font-size: 16px&quot;&gt;&lt;b&gt;%c4Name%&lt;/b&gt;&lt;/font&gt;&lt;div&gt;[%c4Type%]&lt;/div&gt;&lt;br&gt;&lt;div&gt;&lt;font style=&quot;font-size: 11px&quot;&gt;&lt;font color=&quot;#cccccc&quot;&gt;%c4Description%&lt;/font&gt;&lt;/div&gt;" id="F5Uzf3stI1b309WA3jOB-0">
                    <mxCell style="html=1;fontSize=11;dashed=0;whitespace=wrap;fillColor=#083F75;strokeColor=#06315C;fontColor=#ffffff;shape=mxgraph.c4.person2;align=center;metaEdit=1;points=[[0.5,0,0],[1,0.5,0],[1,0.75,0],[0.75,1,0],[0.5,1,0],[0.25,1,0],[0,0.75,0],[0,0.5,0]];resizable=0;" vertex="1" parent="LpzHvoaJvCNoSVXPoMO7-1">
                        <mxGeometry x="40" y="200" width="200" height="180" as="geometry"/>
                    </mxCell>
                </object>
                <object placeholders="1" c4Type="Base de datos" c4Container="Container " c4Technology="SQL Server 2016" c4Description="BDTODO" label="&lt;font style=&quot;font-size: 16px&quot;&gt;&lt;b&gt;%c4Type%&lt;/font&gt;&lt;div&gt;[%c4Container%:&amp;nbsp;%c4Technology%]&lt;/div&gt;&lt;br&gt;&lt;div&gt;&lt;font style=&quot;font-size: 11px&quot;&gt;&lt;font color=&quot;#E6E6E6&quot;&gt;%c4Description%&lt;/font&gt;&lt;/div&gt;" id="F5Uzf3stI1b309WA3jOB-1">
                    <mxCell style="shape=cylinder3;size=15;whiteSpace=wrap;html=1;boundedLbl=1;rounded=0;labelBackgroundColor=none;fillColor=#23A2D9;fontSize=12;fontColor=#ffffff;align=center;strokeColor=#0E7DAD;metaEdit=1;points=[[0.5,0,0],[1,0.25,0],[1,0.5,0],[1,0.75,0],[0.5,1,0],[0,0.75,0],[0,0.5,0],[0,0.25,0]];resizable=0;" vertex="1" parent="LpzHvoaJvCNoSVXPoMO7-1">
                        <mxGeometry x="720" y="440" width="240" height="120" as="geometry"/>
                    </mxCell>
                </object>
                <object placeholders="1" c4Name="SPA Todo" c4Type="Container" c4Technology="Vue 3" c4Description="aplicacion web" label="&lt;font style=&quot;font-size: 16px&quot;&gt;&lt;b&gt;%c4Name%&lt;/b&gt;&lt;/font&gt;&lt;div&gt;[%c4Type%: %c4Technology%]&lt;/div&gt;&lt;br&gt;&lt;div&gt;&lt;font style=&quot;font-size: 11px&quot;&gt;&lt;font color=&quot;#E6E6E6&quot;&gt;%c4Description%&lt;/font&gt;&lt;/div&gt;" id="F5Uzf3stI1b309WA3jOB-2">
                    <mxCell style="rounded=1;whiteSpace=wrap;html=1;fontSize=11;labelBackgroundColor=none;fillColor=#60a917;fontColor=#ffffff;align=center;arcSize=10;strokeColor=#2D7600;metaEdit=1;resizable=0;points=[[0.25,0,0],[0.5,0,0],[0.75,0,0],[1,0.25,0],[1,0.5,0],[1,0.75,0],[0.75,1,0],[0.5,1,0],[0.25,1,0],[0,0.75,0],[0,0.5,0],[0,0.25,0]];" vertex="1" parent="LpzHvoaJvCNoSVXPoMO7-1">
                        <mxGeometry x="345" y="190" width="240" height="120" as="geometry"/>
                    </mxCell>
                </object>
                <object placeholders="1" c4Name="ApiTodo" c4Type="Container" c4Technology="NetCore 3.1" c4Description="WebApi Todo" label="&lt;font style=&quot;font-size: 16px&quot;&gt;&lt;b&gt;%c4Name%&lt;/b&gt;&lt;/font&gt;&lt;div&gt;[%c4Type%: %c4Technology%]&lt;/div&gt;&lt;br&gt;&lt;div&gt;&lt;font style=&quot;font-size: 11px&quot;&gt;&lt;font color=&quot;#E6E6E6&quot;&gt;%c4Description%&lt;/font&gt;&lt;/div&gt;" id="F5Uzf3stI1b309WA3jOB-3">
                    <mxCell style="rounded=1;whiteSpace=wrap;html=1;fontSize=11;labelBackgroundColor=none;fillColor=#0050ef;fontColor=#ffffff;align=center;arcSize=10;strokeColor=#001DBC;metaEdit=1;resizable=0;points=[[0.25,0,0],[0.5,0,0],[0.75,0,0],[1,0.25,0],[1,0.5,0],[1,0.75,0],[0.75,1,0],[0.5,1,0],[0.25,1,0],[0,0.75,0],[0,0.5,0],[0,0.25,0]];" vertex="1" parent="LpzHvoaJvCNoSVXPoMO7-1">
                        <mxGeometry x="760" y="80" width="240" height="120" as="geometry"/>
                    </mxCell>
                </object>
                <object placeholders="1" c4Type="Relationship" c4Description="Uso de tareas" label="&lt;div style=&quot;text-align: left&quot;&gt;&lt;div style=&quot;text-align: center&quot;&gt;&lt;b&gt;%c4Description%&lt;/b&gt;&lt;/div&gt;&lt;/div&gt;" id="F5Uzf3stI1b309WA3jOB-4">
                    <mxCell style="endArrow=blockThin;html=1;fontSize=10;fontColor=#FFFFFF;strokeWidth=1;endFill=1;strokeColor=#828282;elbow=vertical;metaEdit=1;endSize=14;startSize=14;jumpStyle=arc;jumpSize=16;rounded=0;edgeStyle=orthogonalEdgeStyle;exitX=1;exitY=0.75;exitDx=0;exitDy=0;exitPerimeter=0;entryX=0;entryY=0.5;entryDx=0;entryDy=0;entryPerimeter=0;" edge="1" parent="LpzHvoaJvCNoSVXPoMO7-1" source="F5Uzf3stI1b309WA3jOB-0" target="F5Uzf3stI1b309WA3jOB-2">
                        <mxGeometry width="240" relative="1" as="geometry">
                            <mxPoint x="320" y="380" as="sourcePoint"/>
                            <mxPoint x="560" y="380" as="targetPoint"/>
                        </mxGeometry>
                    </mxCell>
                </object>
                <object placeholders="1" c4Type="Relationship" c4Technology="JSON/HTTP" c4Description="Peticiones" label="&lt;div style=&quot;text-align: left&quot;&gt;&lt;div style=&quot;text-align: center&quot;&gt;&lt;b&gt;%c4Description%&lt;/b&gt;&lt;/div&gt;&lt;div style=&quot;text-align: center&quot;&gt;[%c4Technology%]&lt;/div&gt;&lt;/div&gt;" id="F5Uzf3stI1b309WA3jOB-6">
                    <mxCell style="endArrow=blockThin;html=1;fontSize=10;fontColor=#66B2FF;strokeWidth=1;endFill=1;strokeColor=#828282;elbow=vertical;metaEdit=1;endSize=14;startSize=14;jumpStyle=arc;jumpSize=16;rounded=0;edgeStyle=orthogonalEdgeStyle;exitX=0.5;exitY=0;exitDx=0;exitDy=0;exitPerimeter=0;entryX=0;entryY=0.5;entryDx=0;entryDy=0;entryPerimeter=0;" edge="1" parent="LpzHvoaJvCNoSVXPoMO7-1" source="F5Uzf3stI1b309WA3jOB-2" target="F5Uzf3stI1b309WA3jOB-3">
                        <mxGeometry width="240" relative="1" as="geometry">
                            <mxPoint x="440" y="110" as="sourcePoint"/>
                            <mxPoint x="680" y="110" as="targetPoint"/>
                        </mxGeometry>
                    </mxCell>
                </object>
                <object placeholders="1" c4Type="Relationship" c4Technology="TCP/IP" c4Description="Peticiones" label="&lt;div style=&quot;text-align: left&quot;&gt;&lt;div style=&quot;text-align: center&quot;&gt;&lt;b&gt;%c4Description%&lt;/b&gt;&lt;/div&gt;&lt;div style=&quot;text-align: center&quot;&gt;[%c4Technology%]&lt;/div&gt;&lt;/div&gt;" id="F5Uzf3stI1b309WA3jOB-7">
                    <mxCell style="endArrow=blockThin;html=1;fontSize=10;fontColor=#66B2FF;strokeWidth=1;endFill=1;strokeColor=#828282;elbow=vertical;metaEdit=1;endSize=14;startSize=14;jumpStyle=arc;jumpSize=16;rounded=0;edgeStyle=orthogonalEdgeStyle;exitX=0.5;exitY=1;exitDx=0;exitDy=0;exitPerimeter=0;entryX=0.5;entryY=0;entryDx=0;entryDy=0;entryPerimeter=0;" edge="1" parent="LpzHvoaJvCNoSVXPoMO7-1" source="F5Uzf3stI1b309WA3jOB-3" target="F5Uzf3stI1b309WA3jOB-1">
                        <mxGeometry width="240" relative="1" as="geometry">
                            <mxPoint x="664.94" y="314.9999999999999" as="sourcePoint"/>
                            <mxPoint x="959.94" y="264.9999999999999" as="targetPoint"/>
                        </mxGeometry>
                    </mxCell>
                </object>
            </root>
        </mxGraphModel>
    </diagram>
    <diagram id="mvPIRJ8bN3o3F59Ama4O" name="Componentes_Api">
        <mxGraphModel dx="990" dy="567" grid="1" gridSize="10" guides="1" tooltips="1" connect="1" arrows="1" fold="1" page="1" pageScale="1" pageWidth="1169" pageHeight="827" math="0" shadow="0">
            <root>
                <mxCell id="UGF5nn7UO0xS-GSld_Rw-0"/>
                <mxCell id="UGF5nn7UO0xS-GSld_Rw-1" parent="UGF5nn7UO0xS-GSld_Rw-0"/>
                <object placeholders="1" c4Name="API Todo" c4Type="ContainerScopeBoundary" c4Application="Container" label="&lt;font style=&quot;font-size: 16px&quot;&gt;&lt;b&gt;&lt;div style=&quot;text-align: left&quot;&gt;%c4Name%&lt;/div&gt;&lt;/b&gt;&lt;/font&gt;&lt;div style=&quot;text-align: left&quot;&gt;[%c4Application%]&lt;/div&gt;" id="UGF5nn7UO0xS-GSld_Rw-2">
                    <mxCell style="rounded=1;fontSize=11;whiteSpace=wrap;html=1;dashed=1;arcSize=20;fillColor=none;strokeColor=#666666;fontColor=#66B2FF;labelBackgroundColor=none;align=left;verticalAlign=bottom;labelBorderColor=none;spacingTop=0;spacing=10;dashPattern=8 4;metaEdit=1;rotatable=0;perimeter=rectanglePerimeter;labelPadding=0;allowArrows=0;connectable=0;expand=0;recursiveResize=0;editable=1;pointerEvents=0;absoluteArcSize=1;points=[[0.25,0,0],[0.5,0,0],[0.75,0,0],[1,0.25,0],[1,0.5,0],[1,0.75,0],[0.75,1,0],[0.5,1,0],[0.25,1,0],[0,0.75,0],[0,0.5,0],[0,0.25,0]];" vertex="1" parent="UGF5nn7UO0xS-GSld_Rw-1">
                        <mxGeometry x="120" y="50" width="800" height="470" as="geometry"/>
                    </mxCell>
                </object>
                <mxCell id="cghxxeU4qU9iPEnKN5w_-9" style="edgeStyle=none;html=1;entryX=0;entryY=0;entryDx=0;entryDy=15;entryPerimeter=0;fontColor=#66B2FF;" edge="1" parent="UGF5nn7UO0xS-GSld_Rw-1" source="cghxxeU4qU9iPEnKN5w_-1" target="cghxxeU4qU9iPEnKN5w_-3">
                    <mxGeometry relative="1" as="geometry">
                        <Array as="points">
                            <mxPoint x="525" y="295"/>
                        </Array>
                    </mxGeometry>
                </mxCell>
                <mxCell id="cghxxeU4qU9iPEnKN5w_-13" style="edgeStyle=none;html=1;entryX=0;entryY=0;entryDx=0;entryDy=15;entryPerimeter=0;fontColor=#66B2FF;" edge="1" parent="UGF5nn7UO0xS-GSld_Rw-1" source="cghxxeU4qU9iPEnKN5w_-1" target="cghxxeU4qU9iPEnKN5w_-6">
                    <mxGeometry relative="1" as="geometry">
                        <Array as="points">
                            <mxPoint x="660" y="195"/>
                            <mxPoint x="660" y="135"/>
                        </Array>
                    </mxGeometry>
                </mxCell>
                <mxCell id="cghxxeU4qU9iPEnKN5w_-1" value="Application" style="shape=module;align=left;spacingLeft=20;align=center;verticalAlign=top;fontColor=#ffffff;fillColor=#1ba1e2;strokeColor=#006EAF;" vertex="1" parent="UGF5nn7UO0xS-GSld_Rw-1">
                    <mxGeometry x="465" y="170" width="120" height="50" as="geometry"/>
                </mxCell>
                <mxCell id="cghxxeU4qU9iPEnKN5w_-8" style="edgeStyle=none;html=1;entryX=0;entryY=0;entryDx=0;entryDy=15;entryPerimeter=0;fontColor=#66B2FF;" edge="1" parent="UGF5nn7UO0xS-GSld_Rw-1" source="cghxxeU4qU9iPEnKN5w_-2" target="cghxxeU4qU9iPEnKN5w_-1">
                    <mxGeometry relative="1" as="geometry">
                        <Array as="points">
                            <mxPoint x="345" y="185"/>
                        </Array>
                    </mxGeometry>
                </mxCell>
                <mxCell id="cghxxeU4qU9iPEnKN5w_-11" style="edgeStyle=none;html=1;entryX=0;entryY=0;entryDx=0;entryDy=15;entryPerimeter=0;fontColor=#66B2FF;" edge="1" parent="UGF5nn7UO0xS-GSld_Rw-1" source="cghxxeU4qU9iPEnKN5w_-2" target="cghxxeU4qU9iPEnKN5w_-6">
                    <mxGeometry relative="1" as="geometry"/>
                </mxCell>
                <mxCell id="cghxxeU4qU9iPEnKN5w_-2" value="Service" style="shape=module;align=left;spacingLeft=20;align=center;verticalAlign=top;fontColor=#ffffff;fillColor=#60a917;strokeColor=#2D7600;" vertex="1" parent="UGF5nn7UO0xS-GSld_Rw-1">
                    <mxGeometry x="280" y="110" width="130" height="50" as="geometry"/>
                </mxCell>
                <mxCell id="cghxxeU4qU9iPEnKN5w_-10" style="edgeStyle=none;html=1;entryX=0;entryY=0;entryDx=0;entryDy=15;entryPerimeter=0;fontColor=#66B2FF;" edge="1" parent="UGF5nn7UO0xS-GSld_Rw-1" source="cghxxeU4qU9iPEnKN5w_-3" target="cghxxeU4qU9iPEnKN5w_-4">
                    <mxGeometry relative="1" as="geometry">
                        <Array as="points">
                            <mxPoint x="630" y="395"/>
                        </Array>
                    </mxGeometry>
                </mxCell>
                <mxCell id="cghxxeU4qU9iPEnKN5w_-14" style="edgeStyle=none;html=1;entryX=0;entryY=0;entryDx=0;entryDy=15;entryPerimeter=0;fontColor=#66B2FF;" edge="1" parent="UGF5nn7UO0xS-GSld_Rw-1" source="cghxxeU4qU9iPEnKN5w_-3" target="cghxxeU4qU9iPEnKN5w_-6">
                    <mxGeometry relative="1" as="geometry">
                        <Array as="points">
                            <mxPoint x="720" y="305"/>
                            <mxPoint x="720" y="135"/>
                        </Array>
                    </mxGeometry>
                </mxCell>
                <mxCell id="cghxxeU4qU9iPEnKN5w_-3" value="Domain" style="shape=module;align=left;spacingLeft=20;align=center;verticalAlign=top;fontColor=#ffffff;fillColor=#6a00ff;strokeColor=#3700CC;" vertex="1" parent="UGF5nn7UO0xS-GSld_Rw-1">
                    <mxGeometry x="570" y="280" width="120" height="50" as="geometry"/>
                </mxCell>
                <mxCell id="cghxxeU4qU9iPEnKN5w_-15" style="edgeStyle=none;html=1;entryX=0.5;entryY=1;entryDx=0;entryDy=0;fontColor=#66B2FF;" edge="1" parent="UGF5nn7UO0xS-GSld_Rw-1" source="cghxxeU4qU9iPEnKN5w_-4" target="cghxxeU4qU9iPEnKN5w_-6">
                    <mxGeometry relative="1" as="geometry">
                        <Array as="points">
                            <mxPoint x="800" y="350"/>
                        </Array>
                    </mxGeometry>
                </mxCell>
                <mxCell id="cghxxeU4qU9iPEnKN5w_-4" value="Infraestructura" style="shape=module;align=left;spacingLeft=20;align=center;verticalAlign=top;fillColor=#0050ef;strokeColor=#001DBC;fontColor=#ffffff;" vertex="1" parent="UGF5nn7UO0xS-GSld_Rw-1">
                    <mxGeometry x="710" y="380" width="120" height="50" as="geometry"/>
                </mxCell>
                <mxCell id="cghxxeU4qU9iPEnKN5w_-7" style="edgeStyle=none;html=1;entryX=0;entryY=0;entryDx=0;entryDy=15;entryPerimeter=0;fontColor=#66B2FF;" edge="1" parent="UGF5nn7UO0xS-GSld_Rw-1" source="cghxxeU4qU9iPEnKN5w_-5" target="cghxxeU4qU9iPEnKN5w_-2">
                    <mxGeometry relative="1" as="geometry">
                        <Array as="points">
                            <mxPoint x="230" y="125"/>
                        </Array>
                    </mxGeometry>
                </mxCell>
                <mxCell id="cghxxeU4qU9iPEnKN5w_-5" value="Tests" style="shape=module;align=left;spacingLeft=20;align=center;verticalAlign=top;fontColor=#000000;fillColor=#e3c800;strokeColor=#B09500;" vertex="1" parent="UGF5nn7UO0xS-GSld_Rw-1">
                    <mxGeometry x="170" y="270" width="120" height="50" as="geometry"/>
                </mxCell>
                <mxCell id="cghxxeU4qU9iPEnKN5w_-6" value="Transversal" style="shape=module;align=left;spacingLeft=20;align=center;verticalAlign=top;fontColor=#ffffff;fillColor=#647687;strokeColor=#314354;" vertex="1" parent="UGF5nn7UO0xS-GSld_Rw-1">
                    <mxGeometry x="740" y="120" width="120" height="50" as="geometry"/>
                </mxCell>
            </root>
        </mxGraphModel>
    </diagram>
</mxfile>